<svg xmlns="http://www.w3.org/2000/svg"
shape-rendering="geometricPrecision"
width="4000" height="4000" viewBox="0 0 601 601">
  <metadata>null</metadata>

<path d="
M 27.343 416.731
C 34.876 416.311 42.461 416.537 50.005 416.528
C 54.563 416.523 59.498 416.017 63.933 417.307
C 71.182 419.414 75.897 426.953 74.577 434.425
C 74.143 436.883 73.186 439.294 71.549 441.205
C 70.766 442.119 69.083 443.025 68.586 443.996
C 80.676 447.722 81.104 465.95 70.861 472.133
C 65.253 475.518 58.861 475.585 52.514 475.552
C 44.173 475.508 35.624 474.943 27.31 475.583
C 27.139 463.615 27.265 451.638 27.156 439.669
C 35.523 439.525 43.902 439.943 52.271 439.726
C 55.622 439.639 59.954 439.847 62.279 436.947
C 65.149 433.37 63.002 427.961 58.51 427.331
C 54.304 426.742 49.744 427.242 45.499 427.255
C 39.539 427.274 33.395 426.869 27.46 427.422
C 26.879 424.004 27.35 420.192 27.343 416.731 Z
M 38.753 450.17
C 38.907 454.991 39.055 460.029 38.578 464.831
C 44.028 464.436 49.563 464.813 55.023 464.858
C 57.546 464.879 60.848 465.146 63.168 463.97
C 68.373 461.331 67.609 453.182 62.415 450.964
C 59.893 449.887 56.684 450.24 53.998 450.223
C 48.917 450.192 43.834 450.186 38.753 450.17 Z"
opacity="1" fill="rgb(11,13,43)" fill-rule="evenodd" />
<path d="
M 91.487 418.098
C 91.589 417.527 91.549 417.862 91.56 417.089
C 92.279 416.385 94.509 416.776 95.507 416.771
C 99.157 416.75 102.807 416.747 106.457 416.745
C 116.207 416.741 128.135 414.715 135.92 421.95
C 146.364 431.657 142.255 451.432 127.722 454.506
C 128.134 456.372 130.882 458.572 132.042 460.122
C 135.918 465.298 139.957 470.966 144.505 475.556
C 143.793 476.024 142.008 475.598 141.206 475.54
C 138.641 475.356 136.008 475.556 133.436 475.594
C 132.488 475.607 131.28 475.954 130.403 475.535
C 126.755 471.372 123.234 467.067 119.689 462.815
C 117.865 460.628 115.601 458.403 114.104 456.001
C 110.43 455.573 106.43 456.097 102.723 456.143
C 102.622 460.755 102.719 465.387 102.718 470.003
C 102.718 471.501 103.318 474.312 102.71 475.625
C 99.057 475.743 95.396 475.612 91.739 475.742
C 91.03 474.79 91.419 472.66 91.419 471.501
C 91.42 467.833 91.456 464.165 91.458 460.497
C 91.467 446.441 90.618 432.127 91.487 418.098 Z
M 102.958 427.493
C 102.865 427.547 102.771 427.6 102.678 427.654
C 102.563 431.762 102.608 435.887 102.639 439.998
C 102.653 441.877 102.379 443.897 102.629 445.752
C 108.026 444.886 113.699 445.819 119.143 445.472
C 121.747 445.306 124.175 445.258 126.468 443.839
C 132.065 440.373 131.665 431.414 125.853 428.44
C 123.316 427.142 120.199 427.415 117.438 427.4
C 112.661 427.375 107.714 427.057 102.958 427.493 Z"
opacity="1" fill="rgb(13,16,48)" fill-rule="evenodd" />
<path d="
M 152.917 442.102
C 153.942 433.736 158.774 425.307 165.907 420.69
C 179.702 411.759 199.724 414.853 208.897 428.937
C 210.722 431.738 212.205 434.742 212.973 438.008
C 213.912 442.003 214.302 445.876 213.77 449.956
C 213.178 454.487 211.56 458.924 209.152 462.804
C 200.372 476.95 180.911 480.338 166.96 472.29
C 163.913 470.531 161.301 468.257 159.132 465.481
C 156.944 462.681 155.14 459.455 154.093 456.053
C 152.703 451.536 152.342 446.791 152.917 442.102 Z
M 164.437 442.6
C 163.436 449.622 165.813 457.916 171.726 462.248
C 179.391 467.864 190.86 467.02 197.403 460.024
C 200.098 457.142 201.605 453.286 202.204 449.434
C 202.697 446.256 202.549 442.884 201.533 439.818
C 200.408 436.424 198.569 433.256 195.81 430.927
C 186.664 423.209 172.17 425.515 166.555 436.317
C 165.526 438.295 164.754 440.381 164.437 442.6 Z"
opacity="1" fill="rgb(14,19,51)" fill-rule="evenodd" />
<path d="
M 294.742 194.468
C 294.496 196.077 294.983 197.876 294.562 199.42
C 294.133 209.726 294.718 220.174 294.715 230.502
C 294.714 234 294.702 237.499 294.675 240.997
C 294.663 242.597 294.339 244.556 294.76 246.093
C 304.003 253.586 312.266 262.38 320.726 270.738
C 327.572 277.503 334.871 283.912 341.589 290.767
C 342.045 292.551 341.705 294.66 341.702 296.494
C 341.698 300.328 341.708 304.161 341.702 307.995
C 341.7 309.729 341.263 311.939 341.817 313.581
C 345.318 317.802 349.943 321.151 353.735 325.109
C 354.999 326.428 356.834 329.158 358.654 329.613
C 359.897 329.711 361.314 329.132 362.509 329.647
C 368.532 332.244 363.398 342.665 357.835 338.089
C 357.214 337.578 356.759 336.93 356.43 336.199
C 355.835 334.876 356.005 333.553 355.824 332.155
C 354.42 331.363 353.314 329.952 352.162 328.844
C 349.241 326.036 346.611 322.963 343.716 320.131
C 342.072 318.522 339.407 316.827 338.409 314.714
C 337.24 312.24 337.837 307.93 337.835 305.255
C 337.832 302.544 337.834 299.833 337.847 297.121
C 337.853 295.847 338.098 294.082 337.64 292.869
C 337.225 291.771 336.132 290.821 335.307 290.024
C 334.568 289.31 331.771 286.118 330.979 287.005
C 330.971 294.495 331.195 301.995 331.295 309.49
C 331.352 313.663 331.688 318.136 331.135 322.276
C 330.461 322.832 328.649 323.6 327.718 323.57
C 327.365 320.27 327.589 316.869 327.542 313.552
C 327.446 306.872 327.409 300.186 327.25 293.505
C 327.194 291.164 327.054 288.834 327.064 286.491
C 327.069 285.298 327.345 283.86 327.012 282.704
C 326.65 281.443 325.156 280.374 324.212 279.539
C 322.131 277.696 320.173 275.865 318.173 273.933
C 311.638 267.618 305.455 260.901 298.729 254.793
C 296.988 253.212 295.465 251.166 293.571 249.787
C 292.763 249.7 291.753 249.898 291.046 249.473
C 291.223 247.292 291.181 244.778 290.76 242.631
C 288.856 241.841 286.527 242.712 284.721 241.905
C 284.028 240.13 283.328 238.334 282.428 236.651
C 282.001 235.854 281.106 234.894 281.32 233.997
C 282.409 232.773 285.028 230.56 285.154 228.847
C 283.6 226.764 281.599 225.354 279.536 223.862
C 279.097 222.554 279.349 220.869 279.341 219.494
C 279.324 216.495 279.311 213.496 279.307 210.497
C 279.295 200.495 279.335 190.493 279.335 180.492
C 279.335 176.745 279.286 172.998 279.285 169.252
C 279.285 167.784 278.953 165.825 279.431 164.443
C 280.971 163.577 282.477 162.945 283.319 161.263
C 285.412 157.085 282.71 151.928 277.926 151.816
C 273.377 151.709 270.096 156.78 272.093 160.91
C 273.033 162.855 274.741 163.426 276.485 164.413
C 275.881 169.466 276.388 174.901 276.384 179.995
C 276.377 190.328 276.358 200.662 276.385 210.995
C 276.395 214.465 276.365 217.938 276.453 221.408
C 276.505 223.493 276.624 225.409 274.549 226.528
C 272.779 226.883 270.453 225.881 268.896 225.082
C 268.369 221.677 268.688 218.06 268.613 214.618
C 268.376 203.774 269.137 192.747 268.482 181.936
C 267.209 179.807 264.685 178.051 262.915 176.322
C 258.931 172.431 254.811 168.522 251.011 164.46
C 250.298 162.362 250.749 159.498 250.626 157.285
C 251.974 156.123 253.652 155.566 254.592 153.94
C 255.219 152.854 255.426 151.634 255.364 150.392
C 255.313 149.367 255.135 148.29 254.614 147.389
C 250.345 140.004 239.205 147.669 244.358 154.161
C 245.314 155.365 246.591 156.137 247.918 156.87
C 247.705 159.499 247.08 163.525 247.844 166.037
C 251.893 169.979 255.925 173.985 260.039 177.864
C 261.663 179.396 264.767 181.443 265.54 183.557
C 265.776 186.474 265.377 189.557 265.375 192.496
C 265.37 198.833 265.433 205.171 265.469 211.508
C 265.483 213.93 265.813 216.315 265.853 218.729
C 265.863 219.335 266.034 220.665 265.695 221.199
C 265.449 221.586 265.378 220.335 265.279 219.887
C 265.117 219.159 265.193 218.221 264.746 217.628
C 262.868 217.353 258.74 216.733 257.092 217.812
C 256.621 219.719 256.675 221.7 256.151 223.592
C 255.192 224.819 252.834 225.287 251.467 226.008
C 250.839 226.34 250.231 226.808 249.509 226.872
C 247.832 226.506 245.746 223.281 244.042 223.82
C 242.405 225.555 239.257 227.003 238.518 229.398
C 239.327 230.634 240.14 231.766 241.139 232.863
C 241.453 233.209 242.32 233.881 242.265 234.327
C 241.531 236.072 240.296 237.571 239.803 239.433
C 239.646 240.025 239.488 241.539 238.965 241.853
C 236.874 241.877 234.839 242.057 232.764 242.195
C 232.751 245.014 232.665 247.843 232.575 250.662
C 234.003 251.699 236.815 251.546 238.546 251.786
C 239.603 253.792 241.677 256.645 241.914 258.88
C 241.284 260.793 239.275 262.325 238.313 264.124
C 238.476 264.907 239.317 265.593 239.878 266.156
C 241.229 267.513 242.632 269.065 244.102 270.271
C 245.713 269.584 246.727 267.706 248.329 266.926
C 249.05 266.574 249.628 266.815 250.331 267.087
C 252.018 267.741 254.517 268.377 255.832 269.637
C 256.556 271.378 256.634 273.353 257.196 275.153
C 258.65 275.959 261.519 275.371 263.151 275.243
C 263.476 276.377 262.743 277.805 262.863 279.015
C 264.797 282.281 268.596 284.975 271.303 287.603
C 276.003 292.164 280.345 297.061 284.995 301.669
C 286.962 303.619 288.884 306.511 291.977 306.26
C 292.562 306.212 293.283 306.283 293.737 305.878
C 294.078 306.27 293.881 307.097 293.925 307.584
C 294.094 309.422 294.398 311.145 294.387 313.007
C 294.35 319.173 294.491 325.342 294.381 331.508
C 294.276 337.338 294.235 343.172 294.264 349.003
C 294.297 355.513 294.447 361.256 291.684 367.323
C 285.526 380.846 267.17 386.188 254.107 379.939
C 251.52 378.701 248.853 377.07 246.849 374.998
C 245.591 373.698 244.736 372.131 243.555 370.789
C 240.831 369.632 238.118 369.194 235.528 367.601
C 231.459 365.1 228.377 361.063 226.294 356.823
C 225.593 355.397 225.277 353.789 224.456 352.427
C 222.017 351.899 219.567 351.491 217.248 350.518
C 207.033 346.232 200.522 338.143 198.298 327.364
C 197.634 324.143 197.896 320.992 198.074 317.77
C 188.74 313.33 183.169 302.859 183.213 292.747
C 183.222 290.687 183.423 288.666 183.874 286.655
C 184.135 285.496 184.841 284.276 184.833 283.075
C 184.82 281.377 183.578 279.524 183.134 277.886
C 182.224 274.525 182.033 270.938 182.418 267.488
C 182.761 264.419 183.665 261.352 184.93 258.537
C 185.537 257.185 187.193 255.477 187.295 254.007
C 187.399 252.51 186.412 250.733 186.233 249.207
C 185.764 245.22 185.925 240.963 187.243 237.143
C 188.324 234.009 189.861 231.074 191.96 228.498
C 192.921 227.318 194.744 226.37 195.451 225.063
C 195.105 222.221 194.096 219.684 194.064 216.75
C 193.96 207.227 198.686 199.649 205.797 193.735
C 206.293 192.838 205.399 191.192 205.257 190.177
C 204.903 187.653 204.986 184.974 205.357 182.458
C 206.741 173.081 213.077 166.424 221.061 162.043
C 221.584 161.228 221.175 159.276 221.262 158.296
C 221.454 156.115 222.237 153.922 223.138 151.942
C 226.329 144.928 232.319 139.472 239.665 137.069
C 242.487 136.146 245.332 135.916 248.246 135.496
C 249.738 134.366 250.573 132.289 251.853 130.908
C 254.235 128.339 257.45 126.364 260.723 125.154
C 274.42 120.095 290.228 127.175 294.025 141.618
C 295.176 145.997 294.335 151.022 294.321 155.504
C 294.293 163.801 294.35 172.099 294.379 180.395
C 294.395 184.993 293.912 189.951 294.742 194.468 Z
M 231.982 318.529
C 232.241 318.715 232.317 318.839 232.499 319.08
C 229.188 318.911 225.017 319.992 221.831 319.148
C 220.124 313.196 211.482 312.656 209.528 318.839
C 208.014 323.633 212.48 328.248 217.324 327.033
C 219.762 326.422 220.748 324.285 222.048 322.412
C 222.981 321.905 224.463 322.23 225.511 322.23
C 228.177 322.23 230.842 322.286 233.507 322.287
C 234.391 322.287 236.26 321.875 236.888 322.515
C 237.088 323.971 237.778 325.732 237.525 327.193
C 235.787 327.965 233.133 328.468 231.844 329.917
C 232.39 331.868 233.359 333.621 234.002 335.523
C 235.717 335.869 237.588 333.828 239.494 334.245
C 240.456 334.455 241.35 335.628 241.968 336.327
C 242.683 337.134 243.126 337.736 242.696 338.814
C 241.914 340.234 240.341 341.915 240.271 343.574
C 241.514 344.377 243.283 346.356 244.812 346.439
C 246.438 345.115 247.678 343.373 249.317 342.062
C 250.903 342.046 252.789 343.022 254.107 343.833
C 255.14 345.328 254.38 348.158 254.976 349.902
C 256.771 349.83 258.575 349.968 260.366 349.773
C 261.06 347.985 260.612 345.729 261.636 344.081
C 262.972 343.058 264.849 342.73 266.501 342.85
C 267.995 344.187 268.921 346.151 270.551 347.341
C 271.887 346.602 273.193 345.811 274.527 345.069
C 274.84 344.895 275.722 344.634 275.777 344.229
C 275.028 342.916 273.289 341.137 273.202 339.549
C 273.123 338.097 275.618 335.542 277.026 335.537
C 278.852 335.53 280.565 337.477 282.321 337.361
C 283.346 335.698 284.534 333.895 285.036 331.981
C 283.464 331.041 281.933 330.03 280.325 329.131
C 279.716 327.936 280.18 325.056 281.042 324.016
C 282.799 323.021 285.896 323.779 287.369 322.459
C 287.505 320.642 287.142 318.727 286.855 316.944
C 285.166 316.317 282.651 316.818 280.842 316.665
C 279.832 315.884 278.585 312.322 279.06 311.102
C 280.368 309.803 282.773 308.401 283.31 306.548
C 282.138 305.586 280.851 304.503 280.066 303.195
C 277.926 302.744 276.264 305.814 274.189 305.765
C 272.888 305.281 270.854 303.921 270.178 302.671
C 269.629 300.65 271.52 298.783 272.009 296.946
C 270.269 296.098 268.414 295.146 266.49 294.8
C 265.057 296.311 264.619 298.519 263.217 300.028
C 261.78 300.335 259.68 300.034 258.27 299.691
C 257.223 298.296 257.059 295.741 256.706 294.048
C 255.486 292.783 255.93 291.91 255.522 290.343
C 255.161 288.958 254.37 287.834 253.366 286.834
C 247.477 280.965 241.626 275.066 235.789 269.145
C 234.049 267.38 232.318 265.608 230.517 263.905
C 229.595 263.033 228.406 262.195 227.812 261.06
C 226.98 255.808 227.882 249.958 227.851 244.639
C 227.84 242.841 228.279 240.492 227.621 238.79
C 225.101 235.889 222.094 233.381 219.48 230.556
C 217.941 228.893 216.328 226.625 214.259 225.616
C 214.743 223.891 215.864 222.897 215.75 220.945
C 215.687 219.861 215.322 218.794 214.754 217.874
C 214.241 217.041 213.65 216.384 212.864 215.798
C 205.94 210.637 199.118 223.137 206.541 226.895
C 208.364 227.818 210.185 227.37 212.072 227.792
C 216.326 231.702 220.728 235.717 224.569 240.038
C 225.247 241.478 224.751 243.914 224.737 245.494
C 224.702 249.327 224.686 253.16 224.646 256.993
C 224.629 258.65 224.19 260.756 224.687 262.345
C 226.377 264.684 228.937 266.581 230.975 268.627
C 236.029 273.7 241.169 278.693 246.174 283.813
C 248.444 286.135 253.146 289.553 253.428 292.972
C 252.977 293.773 251.573 294.201 250.925 294.973
C 250.539 296.147 251.689 299.124 250.891 299.925
C 249.968 299.684 248.577 296.969 247.811 296.199
C 244.711 293.084 241.424 290.17 238.361 287.009
C 232.382 280.839 226.283 274.785 220.327 268.59
C 218.293 266.474 215.096 264.364 213.544 261.899
C 213.106 261.204 213.34 259.958 213.352 259.176
C 213.387 257.004 214.231 253.763 213.385 251.714
C 211.94 248.217 207.547 245.851 205.075 243.183
C 204.503 241.655 204.711 240.165 203.732 238.727
C 199.241 232.135 189.026 240.591 194.783 246.607
C 195.39 247.242 196.122 247.78 196.959 248.06
C 198.005 248.409 199.107 248.386 200.183 248.211
C 201.714 247.962 202.764 247.184 203.79 246.051
C 204.332 245.902 206.244 248.506 206.77 249.025
C 207.982 250.22 209.879 251.381 210.785 252.821
C 211.182 253.452 210.8 255.043 210.78 255.759
C 210.713 258.054 210.183 260.833 210.795 263.062
C 213.039 266.559 216.975 269.744 219.948 272.649
C 226.263 278.818 232.724 284.982 238.731 291.451
C 241.083 293.984 243.261 296.632 245.816 298.973
C 246.874 299.944 248.143 301.176 249.582 301.478
C 250.347 302.415 247.243 303.189 246.572 303.002
C 244.595 302.448 243.553 300.322 241.392 300.103
C 239.99 300.425 239.657 301.675 239.26 302.92
C 238.524 302.96 237.568 301.821 236.998 301.391
C 234.723 299.672 232.746 297.458 230.757 295.424
C 223.178 287.674 215.775 279.428 207.554 272.387
C 206.521 270.629 207.301 268.754 205.542 267.215
C 204.667 266.449 203.648 265.897 202.509 265.64
C 194.487 263.833 191.226 276.494 199.32 278.114
C 200.219 278.294 201.133 278.263 202.03 278.09
C 203.811 277.747 205.016 276.47 206.504 275.545
C 209.945 277.623 212.884 281.556 215.69 284.419
C 221.242 290.084 227.001 295.556 232.5 301.269
C 234.464 303.309 236.739 304.958 238.743 306.938
C 239.429 307.615 240.425 308.426 240.425 309.448
C 240.001 310.814 238.932 312.336 237.832 313.247
C 235.903 313.881 233.567 310.747 232.427 309.593
C 229.431 306.561 226.294 303.661 223.456 300.477
C 222.212 299.082 220.79 296.605 219.071 295.832
C 215.224 295.496 211.147 295.961 207.275 295.958
C 206.036 295.957 203.705 296.407 202.62 295.911
C 201.927 294.301 201.006 292.688 199.427 291.8
C 195.603 289.65 190.825 292.265 190.075 296.425
C 189.238 301.069 193.953 305.302 198.473 303.691
C 200.817 302.856 201.445 301.036 202.737 299.156
C 206.147 299.246 209.583 299.098 213 299.121
C 214.386 299.13 216.301 298.798 217.602 299.305
C 219.209 299.932 220.762 302.391 221.947 303.61
C 225.258 307.015 228.771 310.455 232.278 313.653
C 231.808 314.584 230.706 315.013 230.195 315.997
C 230.181 317.449 230.568 318.211 231.982 318.529 Z
M 210.498 200.13
C 210.41 202.063 210.92 203.739 211.443 205.564
C 212.073 206.377 214.432 205.404 215.378 205.456
C 216.558 206.347 218.878 208.283 218.898 209.874
C 218.515 211.44 217.151 212.853 216.202 214.114
C 216.967 215.49 219.362 216.774 220.477 218.119
C 222.096 217.668 223.062 215.97 224.508 215.203
C 226.241 215.543 228.048 216.543 229.621 217.336
C 230.211 218.43 229.649 220.379 229.845 221.623
C 231.352 222.391 234.657 222.289 236.296 221.957
C 236.988 221.196 236.717 218.799 236.709 217.813
C 238.163 216.74 240.685 215.872 242.492 215.785
C 243.659 216.363 244.767 217.921 245.581 218.933
C 247.37 218.674 250.181 216.167 251.01 214.631
C 250.407 213.517 249.434 212.449 248.694 211.419
C 248.684 209.665 251.205 207.278 252.375 206.079
C 253.649 206.194 255.356 206.869 256.6 206.633
C 257.493 204.765 258.193 202.008 258.128 199.912
C 256.706 199.415 255.192 199.244 253.727 198.915
C 252.564 197.455 252.639 194.011 252.575 192.207
C 253.793 191.459 255.237 190.828 256.262 189.823
C 256.516 188.38 253.696 184.048 252.376 183.851
C 251.493 184.458 250.283 185.422 249.245 185.692
C 247.753 184.835 245.237 183.148 244.217 181.766
C 244.413 180.33 245.041 178.913 245.417 177.508
C 244.015 176.116 241.452 175.168 239.493 174.96
C 238.647 176.202 238.209 177.7 237.466 179
C 237.109 179.304 236.486 179.167 236.035 179.155
C 234.488 179.116 232.584 179.239 231.088 178.95
C 230.519 177.5 229.663 176.177 229.036 174.781
C 227.16 174.71 224.952 176.061 223.382 176.976
C 223.56 178.272 224.584 180.18 224.103 181.424
C 222.619 182.553 221.169 184.068 219.508 184.916
C 218.095 184.896 216.734 183.53 215.409 183.071
C 214.101 185.009 212.443 186.725 212.111 189.134
C 212.921 189.784 215.971 191.268 216.093 192.152
C 215.923 193.606 215.472 195.008 215.313 196.464
C 215.248 197.055 215.254 197.96 214.748 198.337
C 213.403 198.484 211.814 198.543 210.563 199.081
C 210.543 199.876 210.575 199.527 210.498 200.13 Z"
opacity="1" fill="rgb(17,44,77)" fill-rule="evenodd" />
<path d="
M 193.332 296.494
C 195.082 292.504 200.939 295.085 199.059 298.963
C 197.463 302.256 191.742 300.121 193.332 296.494 Z"
opacity="1" fill="rgb(6,14,41)" fill-rule="evenodd" />
<path d="
M 197.868 271.055
C 198.937 267.306 204.945 268.792 204.157 272.473
C 203.333 276.319 196.689 275.192 197.868 271.055 Z"
opacity="1" fill="rgb(13,27,51)" fill-rule="evenodd" />
<path d="
M 206.475 221.087
C 207.231 216.882 213.143 217.852 212.619 221.971
C 212.161 225.565 205.842 224.609 206.475 221.087 Z"
opacity="1" fill="rgb(17,45,67)" fill-rule="evenodd" />
<path d="
M 212.455 320.603
C 212.687 316.46 219.362 316.892 218.853 320.882
C 218.346 324.865 212.233 324.583 212.455 320.603 Z"
opacity="1" fill="rgb(8,14,39)" fill-rule="evenodd" />
<path d="
M 222.438 195.077
C 222.875 193.443 223.666 191.942 224.703 190.609
C 232.568 180.503 249.701 188.562 246.289 201.106
C 245.751 203.084 244.883 205.034 243.471 206.543
C 234.985 215.608 219.151 207.351 222.438 195.077 Z"
opacity="1" fill="rgb(17,55,89)" fill-rule="evenodd" />
<path d="
M 224.493 445.118
C 224.627 440.894 225.731 436.568 227.523 432.752
C 230.118 427.229 234.244 422.586 239.554 419.529
C 255.351 410.435 278.071 417.496 284.296 435.058
C 285.596 438.724 286.352 442.711 286.253 446.609
C 285.676 469.282 260.861 483.566 240.806 473.357
C 237.529 471.688 234.685 469.578 232.224 466.84
C 229.809 464.154 227.808 461.014 226.565 457.611
C 225.113 453.635 224.358 449.358 224.493 445.118 Z
M 235.985 444.11
C 235.361 450.602 237.989 457.695 243.091 461.847
C 251.005 468.287 263.933 467.2 270.281 459.013
C 273.033 455.464 274.181 451.282 274.54 446.874
C 274.713 444.751 274.277 442.457 273.722 440.415
C 272.726 436.745 270.705 433.312 267.838 430.781
C 258.912 422.905 244.545 425.679 238.66 435.754
C 237.169 438.307 236.269 441.161 235.985 444.11 Z"
opacity="1" fill="rgb(14,24,55)" fill-rule="evenodd" />
<path d="
M 243.913 319.086
C 245.397 310.729 254.657 305.357 262.736 307.706
C 267.791 309.176 271.634 313.296 272.836 318.384
C 273.274 320.241 273.427 322.154 273.13 324.048
C 271.129 336.794 253.423 340.968 246.216 330.026
C 245.218 328.511 244.464 326.814 244.082 325.036
C 243.674 323.136 243.573 321.007 243.913 319.086 Z"
opacity="1" fill="rgb(12,25,57)" fill-rule="evenodd" />
<path d="
M 246.394 149.557
C 247.78 145.859 253.671 147.99 252.082 151.746
C 250.611 155.221 245.086 153.049 246.394 149.557 Z"
opacity="1" fill="rgb(19,64,95)" fill-rule="evenodd" />
<path d="
M 247.45 244.089
C 250.063 231.988 266.372 228.43 273.335 238.916
C 274.366 240.469 275.034 242.147 275.364 243.984
C 275.712 245.916 275.736 247.863 275.321 249.785
C 274.923 251.625 274.164 253.315 273.122 254.876
C 266.281 265.124 250.168 261.346 247.518 249.74
C 247.095 247.889 247.049 245.948 247.45 244.089 Z"
opacity="1" fill="rgb(18,52,85)" fill-rule="evenodd" />
<path d="
M 266.959 270.111
C 266.966 269.918 266.972 269.725 266.978 269.532
C 268.667 268.085 271.324 267.13 273.414 266.382
C 275.079 267.202 276.535 269.672 278.449 269.934
C 280.812 268.742 282.508 266.166 284.731 264.754
C 284.705 263.224 282.204 260.602 281.238 259.49
C 281.211 258.6 281.794 257.85 282.161 257.06
C 282.982 255.3 283.627 253.228 284.66 251.599
C 285.823 251.392 287.011 251.38 288.19 251.364
C 289.582 251.344 291.503 251.154 292.75 251.869
C 294.343 252.781 294.281 254.369 294.317 255.998
C 294.388 259.185 294.02 262.539 294.408 265.7
C 295.082 266.289 296.632 266.187 297.51 266.785
C 298.167 267.732 298.032 269.029 298.324 270.122
C 299.234 270.544 300.57 271.141 301.554 270.654
C 302.082 270.215 302.418 269.589 303.037 269.273
C 304.015 269.579 305.086 270.32 305.804 271.055
C 305.426 272.482 304.564 274.025 304.846 275.524
C 305.912 277.315 308.186 277.504 309.368 279.062
C 309.402 279.977 309.384 281.256 308.901 282.052
C 308.111 282.331 307.48 282.544 306.774 283.011
C 306.248 284.189 306.18 285.53 306.95 286.64
C 307.358 287.229 308.294 287.689 308.304 288.447
C 307.976 289.49 307.325 290.865 306.57 291.666
C 305.844 291.808 305.315 291.121 304.619 291.151
C 303.456 292.071 302.185 292.857 301.102 293.881
C 301.528 294.848 302.235 295.604 301.718 296.678
C 301.139 297.293 300.581 297.9 299.843 298.328
C 298.326 298.829 296.712 297.101 295.16 297
C 294.068 298.349 293.973 299.924 293.879 301.589
C 293.859 301.944 293.957 303.212 293.601 303.369
C 292.972 303.646 291.549 303.003 290.983 302.75
C 288.347 301.572 286.306 298.647 284.299 296.633
C 280.166 292.485 276.145 288.207 271.958 284.117
C 270.453 282.645 267.7 281.002 266.873 279.015
C 266.503 278.124 266.735 277.016 266.778 276.08
C 266.867 274.091 266.897 272.1 266.959 270.111 Z
M 283.365 280.577
C 282.471 285.037 284.306 289.749 288.453 291.842
C 293.397 294.338 300.128 291.015 301.264 285.624
C 302.31 280.655 300.018 275.528 295.319 273.45
C 290.225 271.197 284.38 275.515 283.365 280.577 Z"
opacity="1" fill="rgb(27,50,79)" fill-rule="evenodd" />
<path d="
M 274.871 157.021
C 276.441 153.346 282.617 155.554 280.7 159.341
C 279.091 162.52 273.433 160.386 274.871 157.021 Z"
opacity="1" fill="rgb(11,56,87)" fill-rule="evenodd" />
<path d="
M 294.742 194.468
C 295.566 193.498 296.277 192.522 297.201 191.634
C 302.443 186.574 307.279 181.062 312.432 175.904
C 314.803 173.532 318.383 171.171 320.219 168.391
C 320.704 161.325 320.291 153.865 320.104 146.779
C 318.806 145.953 317.415 145.372 316.539 144.045
C 315.838 142.982 315.363 141.806 315.299 140.525
C 315.24 139.349 315.374 138.188 315.876 137.113
C 319.646 129.025 331.682 134.973 328.165 143.014
C 327.129 145.384 324.966 145.536 323.569 147.286
C 323.385 154.807 324.033 162.388 323.648 169.899
C 322.449 172.28 319.227 174.514 317.314 176.377
C 312.714 180.86 308.256 185.494 303.78 190.101
C 301.786 192.209 299.769 194.256 297.68 196.271
C 296.704 197.212 295.22 198.255 294.562 199.42
C 294.983 197.876 294.496 196.077 294.742 194.468 Z
M 318.843 139.022
C 317.172 143.187 323.626 144.783 324.999 140.954
C 326.397 137.057 320.329 135.316 318.843 139.022 Z"
opacity="1" fill="rgb(135,153,164)" fill-rule="evenodd" />
<path d="
M 299.398 160.079
C 300.017 157.718 301.667 155.246 304.057 154.416
C 303.448 152.361 303.536 150.123 303.441 147.993
C 303.329 145.507 303.173 142.949 303.856 140.529
C 307.296 128.337 319.541 122.324 331.564 124.178
C 339.147 125.347 343.98 130.095 348.666 135.663
C 349.68 136.258 351.245 135.877 352.41 135.994
C 354.846 136.239 357.291 136.911 359.571 137.787
C 370.038 141.81 375.687 151.202 376.697 162.055
C 379.298 163.926 382.199 165.093 384.532 167.374
C 390.723 173.429 394.931 184.758 391.217 193.121
C 391.462 194.244 394.096 195.774 394.99 196.605
C 397.409 198.856 399.374 201.568 400.792 204.557
C 402.882 208.962 404.021 214.072 403.534 218.957
C 403.342 220.888 402.108 223.247 402.235 225.069
C 407.681 230.204 411.651 237.617 411.551 245.242
C 411.512 248.266 410.251 251.116 410.141 254.074
C 410.52 255.636 411.727 256.967 412.489 258.369
C 413.484 260.198 414.137 262.311 414.551 264.344
C 415.402 268.514 415.414 272.728 414.565 276.904
C 414.212 278.637 413.123 280.346 412.947 282.076
C 412.802 283.503 413.649 285.08 413.986 286.451
C 414.54 288.7 414.654 291.034 414.619 293.342
C 414.502 300.89 411.254 308.536 405.614 313.624
C 403.754 315.301 401.515 316.333 399.511 317.78
C 400.537 330.825 395.348 343.064 383.242 349.142
C 379.714 350.914 376.088 351.487 372.256 352.224
C 371.604 354.197 371.321 356.284 370.483 358.2
C 368.664 362.358 364.975 366.181 360.89 368.141
C 358.496 369.289 355.911 369.448 353.515 370.402
C 352.613 371.422 352.034 372.668 351.153 373.712
C 348.887 376.398 345.873 378.698 342.711 380.226
C 329.869 386.432 312.639 380.577 306.575 367.492
C 304.019 361.975 303.958 356.364 303.935 350.395
C 303.916 345.261 303.928 340.128 303.944 334.994
C 303.96 329.883 303.093 324.087 303.958 319.059
C 304.831 317.758 306.336 316.788 307.512 315.761
C 309.99 313.596 312.66 311.495 314.953 309.136
C 315.87 306.689 315.074 303.568 315.416 300.988
C 314.012 299.462 312.004 298.865 310.875 296.913
C 310.268 295.865 310.107 294.744 310.163 293.55
C 310.218 292.366 310.513 291.265 311.104 290.233
C 315.767 282.089 327.946 290.837 322.521 297.927
C 321.512 299.246 320.249 300.017 318.804 300.764
C 318.265 304.041 319.524 307.613 318.755 310.843
C 315.766 314.585 310.839 316.913 308.148 320.879
C 307.659 322.766 307.905 324.961 307.92 326.899
C 307.945 330.122 307.913 333.333 308.059 336.548
C 308.521 346.737 305.797 358.024 311.713 367.099
C 320.123 380 341.11 381.396 349.148 367.572
C 350.045 366.504 351.316 366.358 352.598 366
C 354.586 365.446 356.526 364.819 358.359 363.86
C 364.776 360.5 367.447 354.163 368.237 347.242
C 371.483 347.048 374.444 347.193 377.574 346.08
C 389.021 342.008 395.842 330.837 395.074 318.826
C 391.899 318.128 387.787 318.988 384.5 318.922
C 383.281 318.897 381.417 319.189 380.354 318.5
C 377.767 316.825 375.824 313.825 373.648 311.659
C 368.337 306.372 363.126 300.931 357.609 295.858
C 355.806 294.201 353.639 291.253 351.472 290.202
C 351.96 294.253 351.7 298.412 351.694 302.494
C 351.691 304.126 351.449 305.936 351.817 307.529
C 353.647 310.372 356.993 312.619 359.394 314.995
C 363.434 318.992 367.219 323.758 371.608 327.34
C 373.056 326.711 374.249 325.867 375.895 325.884
C 383.033 325.956 384.913 336.901 377.918 339.039
C 376.896 339.351 375.799 339.382 374.751 339.183
C 373.675 338.98 372.728 338.459 371.9 337.753
C 370.929 336.926 370.122 335.981 369.68 334.768
C 369.052 333.043 369.598 331.424 369.582 329.681
C 368.139 328.228 366.359 327.119 364.865 325.713
C 361.113 322.183 357.494 318.5 353.84 314.872
C 352.123 313.167 349.01 311.173 348.101 308.889
C 347.522 307.436 347.832 305.245 347.81 303.7
C 347.751 299.682 347.793 295.652 347.829 291.634
C 347.841 290.203 348.471 287.51 347.765 286.225
C 346.895 284.642 345.086 283.307 343.813 282.057
C 341.49 279.776 339.235 277.43 336.9 275.159
C 329.681 268.139 322.72 260.846 315.459 253.852
C 313.114 251.594 310.768 249.339 308.434 247.069
C 307.254 245.921 305.567 244.756 304.878 243.218
C 304.094 241.466 304.678 238.543 304.665 236.641
C 304.629 231.548 304.408 226.463 304.427 221.372
C 304.438 218.136 304.489 214.904 304.532 211.671
C 304.549 210.343 304.21 208.616 304.654 207.345
C 304.939 206.532 305.894 205.833 306.493 205.25
C 307.832 203.949 309.127 202.611 310.416 201.261
C 315.318 196.127 320.237 190.993 325.226 185.943
C 326.699 184.451 328.215 183.009 329.73 181.56
C 330.369 180.948 331.346 180.222 331.686 179.396
C 332.193 172.633 331.458 165.752 331.978 158.978
C 330.497 157.847 329.086 157.55 328.134 155.778
C 327.487 154.573 327.18 153.332 327.207 151.966
C 327.228 150.895 327.362 149.908 327.844 148.939
C 331.294 141.996 341.44 146.239 340.15 153.41
C 339.959 154.474 339.297 155.494 338.66 156.346
C 337.696 157.635 336.7 158.305 335.242 158.942
C 334.79 160.246 335.271 162.538 335.269 163.989
C 335.265 168.073 335.334 172.157 335.345 176.239
C 335.578 176.586 336.503 175.454 336.663 175.292
C 337.872 174.064 339.145 172.902 340.385 171.704
C 343.629 168.57 347.035 165.479 350.179 162.264
C 350.689 160.577 350.98 158.967 352.019 157.487
C 354.206 154.371 359.183 154.422 361.836 156.881
C 364.705 159.54 364.841 164.07 362.082 166.824
C 361.305 167.601 360.242 168.134 359.188 168.419
C 357.946 168.755 356.522 168.833 355.268 168.505
C 353.708 168.096 352.641 166.954 351.547 165.851
C 350.789 166.133 350.077 167.144 349.476 167.72
C 345.848 171.272 342.085 174.849 338.77 178.693
C 339.205 179.057 339.986 178.821 340.517 178.819
C 341.845 178.814 343.174 178.839 344.503 178.828
C 349.132 178.791 353.769 178.834 358.396 178.682
C 359.919 178.632 362.248 179.075 363.652 178.527
C 364.522 177.062 365.373 175.393 366.983 174.604
C 372.084 172.106 377.399 176.846 376.826 182.026
C 376.37 186.14 372.19 188.856 368.261 187.509
C 365.991 186.73 364.457 185.035 363.414 182.943
C 362.77 182.531 361.766 182.712 361.004 182.704
C 359.167 182.684 357.335 182.633 355.497 182.652
C 350.678 182.7 345.859 182.627 341.039 182.656
C 338.702 182.67 336.19 182.407 333.883 182.787
C 332.612 183.444 331.728 184.765 330.787 185.816
C 329.142 187.653 327.451 189.465 325.686 191.187
C 321.965 195.022 318.248 198.851 314.452 202.614
C 312.701 204.35 309.936 206.274 308.796 208.482
C 307.82 210.373 308.588 214.363 308.575 216.49
C 308.539 222.457 308.62 228.403 308.607 234.371
C 308.604 236.091 308.625 237.815 308.577 239.534
C 308.555 240.338 308.292 241.05 308.654 241.812
C 314.017 248.358 321.088 254.001 327.218 259.829
C 328.828 261.36 330.437 262.883 331.947 264.515
C 332.667 265.295 333.545 266.607 334.553 267.016
C 336.796 267.926 340.603 267.304 343.004 267.342
C 346.917 267.403 352.514 268.553 356.22 267.007
C 358.671 265.985 361.07 263.094 362.525 260.936
C 362.943 259.18 362.083 257.699 363.224 255.98
C 365.278 252.887 370.085 253.786 372.114 256.513
C 374.193 259.308 371.388 264.3 368.292 264.76
C 366.673 265 365.453 264.438 363.927 264.133
C 362.337 266.471 360.119 269.455 357.499 270.67
C 355.457 271.616 352.934 271.375 350.746 271.366
C 346.96 271.35 343.097 271.516 339.323 271.313
C 339.317 272.238 340.364 273.072 340.978 273.715
C 343.78 276.647 348.598 275.608 352.292 275.61
C 367.133 275.618 382.009 276.213 396.834 276.178
C 397.771 274.982 398.058 273.555 399.259 272.474
C 401.588 270.378 406.167 270.885 408.346 272.938
C 409.324 273.859 409.541 274.954 410.261 275.912
C 410.802 275.243 410.428 272.553 410.443 271.62
C 410.533 266.138 408.678 261.745 406.519 256.823
C 404.67 252.608 406.932 247.525 406.586 243.039
C 406.157 237.478 402.763 233.033 399.557 228.767
C 398.783 228.743 397.846 229.628 397.161 230.035
C 394.762 231.46 388.818 234.336 388.305 229.511
C 389.17 228.542 390.786 228.213 391.948 227.702
C 394.066 226.77 396.21 225.558 397.422 223.519
C 398.396 221.879 398.593 219.659 398.681 217.79
C 398.95 212.052 396.982 206.956 393.686 202.331
C 392.539 200.721 390.632 197.802 388.631 197.248
C 387.318 198.422 385.623 199.781 383.758 199.586
C 382.828 199.001 381.717 197.969 381.749 196.839
C 383.492 195.496 385.334 194.4 386.428 192.409
C 387.567 190.334 387.54 187.624 387.431 185.322
C 386.971 175.705 380.04 168.926 371.818 165.1
C 371.296 162.127 371.628 159.124 370.708 156.173
C 367.869 147.071 360.128 142.531 351.18 141.147
C 351.568 142.949 352.351 146.443 350.529 147.76
C 349.582 147.894 348.699 147.962 347.805 147.571
C 346.612 145.765 346.663 142.858 345.787 140.819
C 343.456 135.397 338.447 131.261 332.864 129.537
C 323.732 126.717 312.479 130.552 308.653 139.763
C 307.501 142.535 307.755 145.597 307.736 148.541
C 307.724 150.423 307.148 153.307 307.792 155.048
C 309.011 155.611 310.243 156.356 311.115 157.396
C 313.618 160.386 312.836 165.921 309.226 167.799
C 305.922 169.517 300.933 167.541 299.736 164.041
C 299.294 162.75 299.229 161.427 299.398 160.079 Z
M 302.853 160.54
C 301.511 164.358 307.569 166.665 308.893 162.879
C 310.206 159.124 304.217 156.658 302.853 160.54 Z
M 313.911 293.078
C 313.451 296.48 317.355 298.382 319.684 295.759
C 320.693 293.423 318.459 289.076 315.572 290.756
C 314.677 291.276 314.261 292.156 313.911 293.078 Z
M 330.77 151.015
C 329.349 155.455 335.863 156.757 336.889 152.544
C 337.771 148.921 331.922 147.416 330.77 151.015 Z
M 346.36 279.556
C 354.319 288.089 363.174 295.968 371.456 304.21
C 373.885 306.627 376.254 309.101 378.655 311.545
C 379.649 312.555 380.855 314.183 382.169 314.777
C 383.978 315.596 387.518 314.828 389.482 314.752
C 391.568 314.671 393.861 314.562 395.841 313.855
C 407.864 309.561 412.277 294.184 409.155 282.785
C 404.837 285.34 398.859 285.402 397.291 279.546
C 396.831 279.12 395.702 279.526 395.055 279.55
C 393.208 279.619 391.348 279.557 389.499 279.566
C 383.078 279.595 376.656 279.686 370.235 279.702
C 368.761 279.706 367.241 279.724 365.778 279.53
C 364.968 279.422 364.085 279.082 363.344 279.495
C 366.612 282.884 370.096 286.072 373.432 289.395
C 374.793 290.75 376.318 293.065 378.163 293.769
C 379.938 294.447 382.954 293.935 384.804 293.667
C 386.331 292.475 386.719 290.531 388.676 289.725
C 389.924 289.211 391.399 289.18 392.701 289.502
C 394.013 289.826 395.127 290.288 396.135 291.221
C 402.037 296.688 394.331 306.23 387.892 301.583
C 386.39 300.5 385.976 298.803 385.014 297.329
C 382.321 297.055 379.425 297.887 376.776 297.455
C 374.875 296.57 373.306 294.35 371.839 292.886
C 368.697 289.748 365.295 286.867 362.071 283.814
C 360.642 282.462 359.307 280.181 357.663 279.179
C 355.027 278.829 352.161 279.052 349.501 279.101
C 348.46 279.12 347.175 278.895 346.36 279.556 Z
M 354.325 160.503
C 352.711 164.248 358.065 167.294 360.03 163.686
C 362.047 159.983 356.089 156.412 354.325 160.503 Z
M 366.448 259.051
C 366.215 259.358 366.303 259.213 366.165 259.472
C 366.099 261.169 367.463 261.607 368.824 260.842
C 369.383 260.079 369.704 259.399 369.55 258.444
C 368.992 258.285 368.526 258.22 367.952 258.293
C 367.412 258.48 366.955 258.793 366.448 259.051 Z
M 366.825 180.563
C 366.825 181.224 366.817 181.881 367.16 182.473
C 369.642 186.765 376.154 181.658 371.799 178.364
C 371.216 177.923 370.572 177.737 369.85 177.708
C 368.285 178.015 367.323 179.08 366.825 180.563 Z
M 372.813 332.559
C 372.332 338.165 381.272 335.47 378.513 331.223
C 378.234 330.794 377.891 330.425 377.465 330.141
C 376.819 329.71 376.198 329.624 375.44 329.635
C 373.901 330.095 373.355 331.132 372.813 332.559 Z
M 388.387 295.606
C 387.923 299.921 394.272 300.975 394.562 296.48
C 394.809 292.634 388.802 291.748 388.387 295.606 Z
M 400.344 277.065
C 399.491 281.13 405.717 282.594 406.77 278.769
C 407.834 274.906 401.242 272.791 400.344 277.065 Z"
opacity="1" fill="rgb(126,141,153)" fill-rule="evenodd" />
<path d="
M 300.044 426.634
C 300.274 423.345 299.774 419.975 300.185 416.702
C 306.625 416.725 313.07 416.525 319.513 416.588
C 326.905 416.66 333.948 417.077 340.387 421.127
C 357.479 431.88 358.81 458.49 341.772 470.087
C 333.041 476.029 323.109 475.734 313 475.692
C 308.8 475.674 304.315 476.107 300.151 475.653
C 299.946 466.78 300.054 457.876 300.099 449
C 300.112 446.502 300.175 444 300.141 441.502
C 300.127 440.514 299.9 439.227 300.318 438.338
C 303.902 438.545 307.71 438.723 311.293 438.545
C 310.623 447.291 312.277 456.324 311.298 465.037
C 313.066 465.474 315.704 464.908 317.566 464.931
C 324.203 465.011 330.483 465.222 335.96 460.794
C 344.388 453.979 344.479 439.577 336.834 432.204
C 331.546 427.106 324.336 427.235 317.495 427.243
C 311.75 427.25 305.984 427.099 300.241 427.288
C 299.94 426.992 300.052 427.19 300.044 426.634 Z"
opacity="1" fill="rgb(13,26,58)" fill-rule="evenodd" />
<path d="
M 311.812 344.492
C 312.738 343.288 315.295 343.513 316.69 343.177
C 317.18 341.165 318.522 339.18 318.691 337.121
C 318.02 336.164 316.997 335.299 316.137 334.51
C 316.93 332.636 319.183 330.434 320.959 329.492
C 322.463 329.682 323.059 331.878 324.464 331.989
C 325.881 331.626 328.24 330.701 329.399 329.808
C 330.155 328.393 329.841 325.967 329.904 324.396
C 331.991 324.011 334.337 324.167 336.444 324.322
C 337.128 325.952 336.33 328.598 337.509 329.91
C 339.113 330.498 341.073 331.871 342.799 331.79
C 344.076 331.115 345.603 329.163 347.144 329.486
C 348.22 330.557 350.08 332.071 350.331 333.615
C 349.765 335.203 348.281 336.382 348.045 338.1
C 348.933 339.655 349.901 341.159 350.774 342.725
C 352.003 343.199 353.856 343.111 355.189 343.165
C 355.261 345.172 355.323 347.284 355.001 349.27
C 353.743 349.661 352.397 349.71 351.137 350.091
C 350.03 351.807 348.917 354.121 348.24 356.047
C 349.047 356.814 350.863 357.948 351.172 359.019
C 350.614 361.027 348.222 362.87 346.448 363.789
C 345.175 363.539 343.81 362.007 342.94 361.103
C 341.349 361.521 338.209 362.59 337.05 363.699
C 337.233 364.821 337.528 366.623 336.694 367.538
C 335.446 368.023 331.486 368.52 330.413 367.638
C 330.096 366.391 330.547 364.965 330.146 363.763
C 328.541 362.922 326.341 361.51 324.521 361.337
C 323.402 361.907 322.643 362.933 321.563 363.548
C 319.892 363.399 317.625 361.571 316.935 360.075
C 316.942 358.348 318.515 357.505 319.144 356.069
C 318.541 354.347 317.363 352.6 316.399 351.048
C 315.517 350.214 313.37 350.395 312.187 350.187
C 312.071 348.293 312.028 346.377 311.812 344.492 Z
M 323.881 344.063
C 323.536 345.315 323.57 346.733 323.773 348.006
C 325.36 357.928 340.099 359.172 342.791 349.288
C 345.547 339.17 332.159 332.212 325.668 340.594
C 324.9 341.585 324.215 342.849 323.881 344.063 Z"
opacity="1" fill="rgb(23,38,67)" fill-rule="evenodd" />
<path d="
M 316.464 217.094
C 316.501 216.902 316.539 216.709 316.576 216.517
C 318.75 215.564 321.422 216.388 323.561 215.368
C 324.684 213.561 325.109 211.284 326.077 209.371
C 326.428 208.677 327.16 207.894 327.223 207.106
C 325.934 205.774 324.814 204.246 323.708 202.762
C 323.328 202.253 322.76 201.719 322.831 201.085
C 324.791 198.854 326.93 196.81 329.001 194.691
C 331.429 194.958 333.33 197.886 335.596 198.729
C 337.432 198.187 339.235 196.681 341.045 195.92
C 341.858 195.578 343.213 195.349 343.809 194.696
C 344.152 192.379 344.081 189.97 345.03 187.786
C 345.813 187.247 347.001 187.399 347.933 187.418
C 349.963 187.459 352.09 187.375 354.093 187.732
C 355.46 189.905 355.335 192.471 355.929 194.874
C 357.512 195.916 359.774 196.208 361.501 197.141
C 362.234 197.537 363.198 198.283 364.085 198.209
C 365.975 198.052 367.646 195.848 369.407 195.217
C 371.644 194.414 373.981 197.852 375.214 199.305
C 375.654 199.824 376.206 200.293 376.45 200.938
C 375.854 203.195 373.675 205.221 372.378 207.119
C 372.33 208.072 373.238 209.157 373.675 209.983
C 374.649 211.822 375.297 213.775 376.207 215.627
C 378.444 216.216 380.823 216.312 383.089 216.787
C 383.578 217.478 383.376 218.791 383.376 219.615
C 383.376 221.682 383.428 223.743 383.249 225.803
C 381.339 227.357 378.147 226.191 376.181 227.443
C 374.723 229.717 373.085 233.064 372.333 235.651
C 373.571 237.584 375.299 239.197 376.34 241.257
C 376.143 241.894 375.314 242.45 374.837 242.896
C 373.308 244.33 371.661 246.141 369.802 247.129
C 367.31 247.849 365.548 244.496 363.588 243.609
C 360.854 244.89 358.145 246.212 355.372 247.411
C 354.777 249.539 355.111 251.911 354.286 253.976
C 352.114 255.094 347.616 254.434 345.245 254.159
C 343.968 252.584 344.199 249.283 343.557 247.328
C 342.404 246.639 341.027 246.365 339.8 245.823
C 338.407 245.208 336.947 244.165 335.489 243.794
C 333.927 244.11 332.634 245.394 331.472 246.412
C 331.033 246.796 330.276 247.751 329.664 247.775
C 327.201 246.467 324.611 243.869 323.052 241.585
C 323.648 239.262 326.564 237.599 326.986 235.307
C 327.085 234.77 326.303 233.857 326.076 233.401
C 325.179 231.604 324.639 229.668 323.83 227.842
C 321.723 226.536 318.71 227.452 316.686 226.202
C 316.488 223.246 316.144 220.046 316.464 217.094 Z
M 334.402 218.594
C 333.603 224.043 335.61 229.965 340.046 233.364
C 346.847 238.574 357.536 237.409 362.303 230.002
C 363.6 227.987 364.37 225.748 364.737 223.39
C 366.699 210.797 351.984 199.518 340.973 207.797
C 339.331 209.031 337.939 210.478 336.836 212.217
C 335.599 214.168 334.739 216.299 334.402 218.594 Z"
opacity="1" fill="rgb(90,115,138)" fill-rule="evenodd" />
<path d="
M 366.448 259.051
C 366.955 258.793 367.412 258.48 367.952 258.293
C 368.526 258.22 368.992 258.285 369.55 258.444
C 369.704 259.399 369.383 260.079 368.824 260.842
C 367.463 261.607 366.099 261.169 366.165 259.472
C 366.303 259.213 366.215 259.358 366.448 259.051 Z"
opacity="0.996" fill="rgb(206,210,222)" fill-rule="evenodd" />
<path d="
M 369.25 416.829
C 371.169 416.908 373.087 416.888 375.006 416.887
C 375.486 416.887 376.447 416.673 376.756 417.036
C 376.699 425.895 376.271 434.929 376.727 443.766
C 374.911 444.126 372.832 443.427 370.958 443.75
C 370.491 443.83 369.651 444.433 369.325 444.022
C 368.687 435.152 368.752 425.706 369.25 416.829 Z"
opacity="1" fill="rgb(122,137,152)" fill-rule="evenodd" />
<path d="
M 369.435 445.946
C 371.871 445.935 374.164 445.967 376.624 445.751
C 376.974 447.613 376.726 449.615 376.725 451.502
C 376.722 455.001 376.699 458.5 376.694 461.999
C 376.692 463.425 376.062 466.833 376.895 467.941
C 387.747 467.104 398.758 468.194 409.633 467.83
C 410.409 469.952 409.626 473.089 409.825 475.351
C 400.248 474.918 390.583 475.271 380.997 475.273
C 378.33 475.274 375.662 475.281 372.994 475.273
C 371.776 475.269 370.254 475.568 369.104 475.176
C 368.957 469.123 369.036 463.047 369.104 456.993
C 369.145 453.342 368.937 449.568 369.435 445.946 Z"
opacity="1" fill="rgb(96,115,133)" fill-rule="evenodd" />
<path d="
M 376.323 256.41
C 377.3 255.381 378.917 254.896 380.04 254.002
C 380.849 252.249 378.337 249.939 377.833 248.35
C 377.797 246.908 379.324 245.19 380.891 245.484
C 381.795 245.653 382.578 246.546 383.476 246.354
C 384.653 245.562 385.703 244.587 386.893 243.825
C 386.956 243.331 386.361 242.587 386.124 242.16
C 386.983 240.991 389.426 240.84 390.72 241.226
C 390.959 242.059 391.289 242.822 391.809 243.519
C 392.735 244.082 394.109 244.19 395.164 244
C 396.021 243.472 396.61 242.589 397.565 242.244
C 401.444 242.927 398.496 246.65 399.754 248.791
C 400.578 249.074 403.421 249.724 403.421 250.803
C 402.446 251.032 401.45 250.815 400.475 250.687
C 400.086 251.628 401.476 252.442 401.455 253.339
C 400.544 254.279 400.111 254.862 400.294 256.223
C 401.078 256.291 402.325 255.986 402.865 256.569
C 403.225 258.202 403.784 259.772 403.205 261.422
C 401.915 263.454 400.519 261.523 398.843 261.596
C 398.181 261.804 397.7 262.088 397.154 262.518
C 396.48 263.933 397.386 265.73 396.667 267.125
C 395.655 268.06 393.862 268.827 392.652 267.847
C 392.199 267.095 391.865 266.277 391.449 265.504
C 390.155 265.158 388.707 265.09 387.377 265.2
C 387.028 265.757 386.614 266.254 386.275 266.818
C 385.111 267.409 382.566 266.619 381.835 265.553
C 381.997 264.64 382.411 263.753 382.49 262.831
C 382.741 259.907 379.377 260.187 377.505 259.985
C 376.945 258.861 376.658 257.615 376.323 256.41 Z
M 384.346 253.072
C 383.702 256.102 385.131 259.584 388.182 260.717
C 391.453 261.931 395.75 259.98 396.568 256.477
C 398.346 248.861 386.126 244.691 384.346 253.072 Z"
opacity="1" fill="rgb(110,127,139)" fill-rule="evenodd" />
<path d="
M 433.384 443.991
C 432.935 443.656 432.254 443.592 431.717 443.452
C 429.865 443.182 427.972 443.329 426.207 443.953
C 425.392 434.933 426.548 425.792 425.827 416.774
C 428.261 416.812 430.699 416.812 433.133 416.785
C 434.055 418.775 433.332 422.704 433.338 424.908
C 433.356 431.249 433.946 437.68 433.384 443.991 Z"
opacity="1" fill="rgb(123,141,155)" fill-rule="evenodd" />
<path d="
M 426.188 446.481
C 427.888 444.664 431.542 446.625 433.543 445.977
C 434.2 453.368 433.58 461.02 433.565 468.44
C 433.562 470.178 433.728 472 433.566 473.729
C 433.537 474.039 433.714 475.295 433.484 475.433
C 431.478 475.395 427.829 476.104 426.099 475.134
C 425.606 465.74 425.604 455.866 426.188 446.481 Z"
opacity="1" fill="rgb(107,124,141)" fill-rule="evenodd" />
<path d="
M 480.605 442.415
C 480.448 443.011 479.59 443.187 479.046 443.278
C 478.136 443.43 477.297 443.296 476.39 443.571
C 475.434 443.861 474.322 444.529 473.358 444.598
C 470.331 441.639 467.842 437.941 465.167 434.662
C 464.208 433.486 463.235 432.316 462.32 431.106
C 462.135 430.861 461.36 429.788 461.284 429.761
C 461.096 429.695 461.173 430.144 461.118 430.335
C 461.287 434.686 462.133 440.098 461.234 444.363
C 461.116 444.66 460.623 444.175 460.314 444.097
C 459.959 444.007 459.608 443.942 459.245 443.9
C 457.635 443.711 455.983 443.869 454.368 443.854
C 453.338 442.272 453.98 438.479 453.948 436.615
C 453.833 430.024 453.945 423.425 453.876 416.84
C 455.722 416.753 458.415 416.18 460.134 416.822
C 467.134 425.17 474.008 433.744 480.605 442.415 Z"
opacity="1" fill="rgb(105,124,143)" fill-rule="evenodd" />
<path d="
M 454.065 447.62
C 454.264 446.217 454.554 446.25 456.06 446.301
C 457.443 446.644 460.44 445.27 461.399 446.599
C 462.244 447.77 461.685 451.106 461.688 452.502
C 461.703 457.984 461.686 463.468 461.644 468.951
C 461.631 470.664 461.683 472.388 461.638 474.098
C 461.629 474.418 461.751 475.293 461.441 475.456
C 459.144 475.349 456.76 475.311 454.463 475.435
C 453.866 474.929 454.066 474.236 454.064 473.496
C 454.06 471.83 454.08 470.164 454.083 468.499
C 454.096 461.545 453.909 454.57 454.065 447.62 Z"
opacity="1" fill="rgb(103,120,139)" fill-rule="evenodd" />
<path d="
M 473.358 444.598
C 474.322 444.529 475.434 443.861 476.39 443.571
C 477.297 443.296 478.136 443.43 479.046 443.278
C 479.59 443.187 480.448 443.011 480.605 442.415
C 482.188 444.067 483.383 446.039 484.848 447.791
C 488.79 452.505 492.583 457.071 496.057 462.135
C 496.429 457.943 495.851 453.598 496.033 449.369
C 496.069 448.547 495.535 445.659 496.163 445.122
C 496.286 445.016 497.994 445.829 498.382 445.826
C 499.887 445.811 501.822 445.135 503.196 445.872
C 504.19 448.352 503.495 452.359 503.459 455.003
C 503.367 461.765 502.983 468.687 503.37 475.436
C 501.523 475.591 499.558 475.752 497.708 475.573
C 496.67 474.734 495.984 473.306 495.163 472.247
C 493.207 469.726 491.219 467.225 489.24 464.721
C 483.991 458.078 477.872 451.783 473.358 444.598 Z"
opacity="1" fill="rgb(101,118,136)" fill-rule="evenodd" />
<path d="
M 495.666 416.699
C 498.169 416.724 500.673 416.752 503.176 416.704
C 502.943 425.696 503.337 434.76 503.265 443.758
C 500.948 443.859 498.503 443.639 496.16 443.669
C 495.057 442.044 495.76 437.928 495.76 435.999
C 495.761 429.574 495.886 423.12 495.666 416.699 Z"
opacity="1" fill="rgb(125,142,156)" fill-rule="evenodd" />
<path d="
M 522.828 416.745
C 524.84 416.632 528.654 415.953 530.478 416.828
C 529.839 423.262 530.569 430.055 530.63 436.522
C 530.647 438.368 530.712 440.224 530.663 442.07
C 530.647 442.647 530.71 443.705 530.361 444.196
C 528.842 444.02 527.109 443.521 525.58 443.871
C 524.911 444.024 523.403 445.281 523.086 444.315
C 522.423 435.169 523.327 425.907 522.828 416.745 Z"
opacity="1" fill="rgb(117,135,151)" fill-rule="evenodd" />
<path d="
M 536.045 447.211
C 537.302 447.451 538.546 447.613 539.814 447.774
C 541.257 447.718 541.384 447.754 541.875 449.075
C 541.254 448.475 541.254 448.213 540.309 448.106
C 538.288 449.874 536.946 452.398 535.019 454.298
C 533.705 455.594 531.447 456.757 530.618 458.405
C 530.392 464.05 530.836 469.733 530.631 475.382
C 528.077 475.619 525.435 475.289 522.864 475.444
C 523.019 468.586 523.021 461.723 523.203 454.865
C 523.276 452.095 522.934 449.187 523.382 446.448
C 525.338 446.447 528.809 446.165 530.584 446.855
C 530.818 447.51 530.776 448.19 530.956 448.842
C 533.155 448.012 533.356 446.486 536.045 447.211 Z"
opacity="1" fill="rgb(118,133,150)" fill-rule="evenodd" />
<path d="
M 535.26 444.198
C 538.78 443.702 542.943 443.369 546.477 443.839
C 548.147 444.921 549.439 446.827 550.743 448.311
C 552.949 450.823 555.147 453.327 557.282 455.901
C 562.745 462.485 568.819 468.727 574.074 475.452
C 573.396 475.63 572.605 475.351 571.903 475.386
C 569.91 475.488 565.946 476.299 564.187 475.323
C 558.254 468.856 552.425 462.025 547.053 455.085
C 545.442 453.004 543.316 451.272 541.875 449.075
C 541.384 447.754 541.257 447.718 539.814 447.774
C 538.546 447.613 537.302 447.451 536.045 447.211
C 536.862 446.912 533.659 445.264 535.26 444.198 Z"
opacity="1" fill="rgb(116,131,147)" fill-rule="evenodd" />
<path d="
M 546.477 443.839
C 542.943 443.369 538.78 443.702 535.26 444.198
C 535.24 443.66 536.248 443.074 536.58 442.642
C 538.031 440.754 539.764 439.131 541.448 437.45
C 546.441 432.466 551.286 427.33 556.392 422.459
C 557.642 421.266 558.979 420.146 560.178 418.902
C 560.896 418.156 561.492 417.166 562.442 416.718
C 564.445 416.554 566.492 416.762 568.503 416.751
C 569.601 416.745 570.98 416.466 571.981 416.917
C 570.789 419.119 567.779 421.175 565.977 422.973
C 561.406 427.534 556.926 432.187 552.351 436.744
C 550.753 438.336 549.052 439.807 547.521 441.466
C 546.872 442.169 546.021 442.817 546.477 443.839 Z"
opacity="1" fill="rgb(104,124,142)" fill-rule="evenodd" />

</svg>